# xmcd
#
# Track frame offsets: 
#        150
#        15808
#        34795
#        51094
#        70727
#        89991
#        104972
#        122124
#        135132
#        154209
#
# Disc length: 2266 seconds
#
# Revision: 1
# Processed by: cddbd v1.5.2PL0 Copyright (c) Steve Scherf et al.
# Submitted via: ExactAudioCopy v0.95b4
#
DISCID=8308d80a
DTITLE=Heidi Newfield - What Am I Waiting For
DYEAR=2008
DGENRE=Country
TTITLE0=Can't Let Go
TTITLE1=When Tears Fall Down
TTITLE2=Johnny And June
TTITLE3=What Am I Waiting For
TTITLE4=Love Her And Lose Me
TTITLE5=Cry Cry ('Til The Sun Shines)
TTITLE6=Wreck You
TTITLE7=Nothin' Burns Like A Memory
TTITLE8=All I Wanna Do
TTITLE9=Knocked Up
EXTD=YEAR: 2008
EXTT0=
EXTT1=
EXTT2=
EXTT3=
EXTT4=
EXTT5=
EXTT6=
EXTT7=
EXTT8=
EXTT9=
PLAYORDER=
